<svg xmlns="http://www.w3.org/2000/svg" width="400" height="400" viewBox="0 0 400 400">
  <!-- Franz · KI-Lotse · Pattaya — Dunkel -->
  <rect width="400" height="400" rx="56" fill="#04342C"/>
  <circle cx="200" cy="185" r="120" fill="none" stroke="#1D9E75" stroke-width="3.5"/>
  <circle cx="200" cy="185" r="100" fill="none" stroke="#085041" stroke-width="1" stroke-dasharray="6 10"/>
  <!-- Zierstriche -->
  <line x1="200" y1="67" x2="200" y2="82" stroke="#1D9E75" stroke-width="3"/>
  <line x1="200" y1="288" x2="200" y2="303" stroke="#1D9E75" stroke-width="3"/>
  <line x1="82" y1="185" x2="97" y2="185" stroke="#1D9E75" stroke-width="3"/>
  <line x1="303" y1="185" x2="318" y2="185" stroke="#1D9E75" stroke-width="3"/>
  <line x1="116" y1="101" x2="127" y2="112" stroke="#085041" stroke-width="2"/>
  <line x1="284" y1="101" x2="273" y2="112" stroke="#085041" stroke-width="2"/>
  <line x1="116" y1="269" x2="127" y2="258" stroke="#085041" stroke-width="2"/>
  <line x1="284" y1="269" x2="273" y2="258" stroke="#085041" stroke-width="2"/>
  <!-- N -->
  <text x="200" y="62" font-family="sans-serif" font-size="22" font-weight="500" fill="#5DCAA5" text-anchor="middle">N</text>
  <!-- Nordzeiger (hell-Teal) -->
  <polygon points="200,85 211,170 200,145 189,170" fill="#5DCAA5"/>
  <!-- Südzeiger (dunkelgrau) -->
  <polygon points="200,285 211,200 200,225 189,200" fill="#444441"/>
  <!-- Westzeiger (dunkelgrau) -->
  <polygon points="83,185 168,174 143,185 168,196" fill="#444441"/>
  <!-- Ostzeiger (hell-Teal) -->
  <polygon points="317,185 232,174 257,185 232,196" fill="#5DCAA5"/>
  <!-- Mittelpunkt -->
  <circle cx="200" cy="185" r="14" fill="#5DCAA5"/>
  <circle cx="200" cy="185" r="6" fill="#04342C"/>
  <!-- Text -->
  <text x="200" y="334" font-family="sans-serif" font-size="32" font-weight="500" fill="#9FE1CB" text-anchor="middle">Franz</text>
  <text x="200" y="368" font-family="sans-serif" font-size="20" fill="#5DCAA5" text-anchor="middle">KI-Lotse · Pattaya</text>
</svg>
